<?xml version="1.0" encoding="UTF-8"?><svg id="Layer_2" xmlns="http://www.w3.org/2000/svg" viewBox="0 0 189.43 25.26"><defs><style>.cls-1{fill:#ccc}</style></defs><g id="Layer_1-2"><path class="cls-1" d="M10.32,6.07c4.92,0,8.73,3.78,8.73,9.51s-3.84,9.68-8.73,9.68c-3.07,0-5.26-1.38-6.47-3v2.7H0V0h3.84v9.14c1.21-1.69,3.54-3.07,6.47-3.07ZM9.48,9.41c-2.87,0-5.63,2.26-5.63,6.24s2.77,6.27,5.63,6.27,5.67-2.33,5.67-6.34-2.76-6.17-5.67-6.17Z"/><path class="cls-1" d="M40.37,24.95h-3.84v-2.23c-1.21,1.58-3.3,2.5-5.5,2.5-4.35,0-7.66-2.73-7.66-7.92V6.37h3.81v10.35c0,3.41,1.85,5.16,4.65,5.16s4.69-1.75,4.69-5.16V6.37h3.84v18.58Z"/><path class="cls-1" d="M49.95,24.95h-3.84V6.37h3.84v2.7c1.08-1.85,2.93-3,5.56-3v3.98h-.98c-2.83,0-4.59,1.18-4.59,5.13v9.78Z"/><path class="cls-1" d="M59.73,0h3.84v14.5l6.75-8.13h5.33l-8.57,9.31,8.57,9.27h-5.19l-6.88-7.99v7.99h-3.84V0Z"/><path class="cls-1" d="M87.08,25.26c-5.33,0-9.27-3.78-9.27-9.61s3.78-9.58,9.27-9.58,9.04,3.68,9.04,9.14c0,.64-.03,1.25-.13,1.89h-14.2c.27,3.07,2.46,4.92,5.29,4.92,2.36,0,3.68-1.15,4.38-2.6h4.15c-1.04,3.24-3.98,5.83-8.53,5.83ZM81.82,13.99h10.29c-.07-2.87-2.33-4.69-5.19-4.69-2.6,0-4.69,1.75-5.09,4.69Z"/><path class="cls-1" d="M107.82,6.37h3.91l3.88,14.94,3.95-14.94h4.01l3.78,14.87,3.84-14.87h3.78l-5.77,18.58h-4.05l-3.74-13.72-3.74,13.72h-4.05l-5.8-18.58Z"/><path class="cls-1" d="M146,6.07c3.14,0,5.29,1.48,6.44,3v-2.7h3.88v18.58h-3.88v-2.77c-1.18,1.58-3.41,3.07-6.51,3.07-4.82,0-8.7-3.95-8.7-9.68s3.88-9.51,8.77-9.51ZM146.81,9.41c-2.87,0-5.63,2.16-5.63,6.17s2.76,6.34,5.63,6.34,5.63-2.26,5.63-6.27-2.73-6.24-5.63-6.24Z"/><path class="cls-1" d="M162.05,0h3.84v24.95h-3.84V0Z"/><path class="cls-1" d="M179.15,6.07c2.43,0,4.99,1.15,6.41,2.9V0h3.88v24.95h-3.88v-2.8c-1.18,1.69-3.41,3.1-6.44,3.1-4.89,0-8.77-3.95-8.77-9.68s3.88-9.51,8.8-9.51ZM179.92,9.41c-2.87,0-5.63,2.16-5.63,6.17s2.76,6.34,5.63,6.34,5.63-2.26,5.63-6.27-2.73-6.24-5.63-6.24Z"/></g></svg>